<svg xmlns="http://www.w3.org/2000/svg" xmlns:xlink="http://www.w3.org/1999/xlink" viewBox="0,0,256,256" width="200px" height="200px" fill-rule="nonzero"><g fill="none" fill-rule="nonzero" stroke="none" stroke-width="1" stroke-linecap="none" stroke-linejoin="none" stroke-miterlimit="10" stroke-dasharray="" stroke-dashoffset="0" font-family="none" font-weight="none" font-size="none" text-anchor="none" style="mix-blend-mode: normal"><g transform="scale(2.56,2.56)"><path d="M92.087,72.725c-1.835,-6.42 -18.227,-62.725 -28.837,-62.725c-5.383,0 -9.383,6.454 -13.251,12.696c-2.481,4.004 -4.825,7.786 -7.208,9.336c-1.034,0.673 -1.965,1.19 -2.865,1.69c-1.808,1.004 -3.515,1.953 -5.415,3.854c-2.288,2.287 -3.926,4.543 -4.453,5.299l-23.419,9.067c-0.346,0.134 -0.589,0.449 -0.632,0.817c-0.043,0.368 0.122,0.73 0.428,0.94l17.875,12.251l0.003,-0.005c0.2,0.137 0.446,0.205 0.699,0.171c0.045,-0.006 4.631,-0.601 8.789,1.894c8.058,4.834 8.199,18.852 8.199,18.993c0.001,0.296 0.134,0.578 0.362,0.767c0.181,0.15 0.408,0.23 0.638,0.23c0.062,0 0.122,-0.005 0.183,-0.017c0.211,-0.039 5.209,-1.017 10.375,-6.125c3.115,-3.081 5.441,-6.676 7.493,-9.848c3.008,-4.65 5.605,-8.666 9.508,-9.283c5.492,-0.87 16.224,7.653 19.891,11.01c0.33,0.302 0.819,0.348 1.202,0.113c0.379,-0.235 0.557,-0.694 0.435,-1.125zM35.925,38.99c1.703,-1.703 3.218,-2.545 4.973,-3.52c0.93,-0.517 1.892,-1.051 2.984,-1.762c2.757,-1.793 5.215,-5.76 7.817,-9.958c1.683,-2.715 3.393,-5.466 5.176,-7.627c-2.265,4.03 -4.73,9.912 -7.708,17.257c-2.745,6.77 -5.337,13.164 -7.618,16.675c-0.048,0.074 -0.099,0.145 -0.147,0.218l-9.308,-6.802c0.717,-0.978 2.085,-2.736 3.831,-4.481zM24.967,63.975l-15.837,-10.852l21.428,-8.297l9.681,7.074c-5.316,6.924 -13.23,11.08 -15.272,12.075zM70.246,60.751c-4.784,0.757 -7.606,5.12 -10.874,10.172c-1.997,3.086 -4.26,6.584 -7.221,9.512c-3.299,3.262 -6.543,4.69 -8.2,5.255c-0.23,-3.82 -1.553,-14.855 -9.121,-19.396c-2.099,-1.259 -4.268,-1.834 -6.055,-2.08c3.927,-2.273 10.28,-6.65 14.451,-13.071c2.385,-3.672 5.012,-10.152 7.794,-17.013c3.787,-9.339 8.972,-22.13 12.23,-22.13c6.551,0 18.981,34.33 25.978,58.05c-4.378,-3.597 -13.296,-10.201 -18.982,-9.299z" fill="#6e57e0" stroke="none" stroke-linecap="butt" stroke-linejoin="miter"></path><path d="M57.765,26.25c-0.067,0 -0.136,-0.014 -0.201,-0.042c-0.253,-0.111 -0.367,-0.406 -0.257,-0.659c1.458,-3.323 2.675,-5.833 3.721,-7.671c0.136,-0.24 0.44,-0.325 0.682,-0.188c0.24,0.136 0.324,0.442 0.188,0.682c-1.028,1.809 -2.23,4.288 -3.674,7.579c-0.083,0.187 -0.267,0.299 -0.459,0.299z" fill="#6e57e0" stroke="none" stroke-linecap="butt" stroke-linejoin="miter"></path><path d="M56.213,29.875c-0.064,0 -0.131,-0.013 -0.193,-0.039c-0.255,-0.107 -0.375,-0.4 -0.268,-0.655l0.423,-1.001c0.107,-0.255 0.399,-0.372 0.655,-0.266c0.254,0.108 0.373,0.401 0.265,0.655l-0.421,0.999c-0.08,0.192 -0.266,0.307 -0.461,0.307z" fill="#6e57e0" stroke="none" stroke-linecap="butt" stroke-linejoin="miter"></path><path d="M46.432,81.686c-0.069,0 -0.139,-0.014 -0.204,-0.043c-0.152,-0.068 -0.261,-0.208 -0.289,-0.373c-0.974,-5.706 -3.469,-13.307 -9.822,-17.119c-0.249,-0.149 -0.499,-0.291 -0.748,-0.424c-0.151,-0.081 -0.25,-0.232 -0.264,-0.403c-0.013,-0.17 0.063,-0.336 0.199,-0.438c4.226,-3.158 7.597,-6.65 10.02,-10.38c2.516,-3.874 5.186,-10.461 8.014,-17.436c0.403,-0.997 0.824,-2.014 1.282,-3.123l0.419,-1.013c0.105,-0.255 0.397,-0.374 0.652,-0.271c0.256,0.105 0.377,0.398 0.271,0.653l-0.418,1.013c-0.458,1.107 -0.878,2.123 -1.281,3.117c-2.846,7.02 -5.533,13.65 -8.102,17.604c-2.368,3.647 -5.612,7.067 -9.648,10.173c0.039,0.023 0.078,0.046 0.117,0.07c6.401,3.84 9.062,11.245 10.16,17.059c1.012,-0.693 1.984,-1.5 2.9,-2.406c1.135,-1.122 2.248,-2.428 3.405,-3.994c0.166,-0.222 0.48,-0.268 0.699,-0.104c0.223,0.164 0.27,0.477 0.105,0.699c-1.188,1.607 -2.335,2.952 -3.507,4.11c-1.154,1.142 -2.397,2.135 -3.695,2.952c-0.08,0.051 -0.173,0.077 -0.265,0.077z" fill="#6e57e0" stroke="none" stroke-linecap="butt" stroke-linejoin="miter"></path><path d="M58.186,67.25c-0.445,0.671 -0.888,1.355 -1.334,2.044" fill="#ffffff" stroke="none" stroke-linecap="butt" stroke-linejoin="miter"></path><path d="M56.853,69.794c-0.094,0 -0.188,-0.026 -0.271,-0.08c-0.231,-0.15 -0.298,-0.459 -0.148,-0.691c0.446,-0.691 0.89,-1.376 1.338,-2.049c0.152,-0.231 0.463,-0.292 0.693,-0.14c0.229,0.153 0.292,0.463 0.139,0.693c-0.444,0.669 -0.886,1.352 -1.33,2.039c-0.097,0.147 -0.258,0.228 -0.421,0.228z" fill="#6e57e0" stroke="none" stroke-linecap="butt" stroke-linejoin="miter"></path><path d="M59.651,65.625c-0.102,0 -0.204,-0.031 -0.293,-0.095c-0.224,-0.162 -0.274,-0.475 -0.112,-0.698c2.378,-3.286 5.479,-6.751 10.453,-7.537c3.479,-0.555 7.834,0.723 13.106,3.852c-2.395,-7.483 -4.786,-14.379 -7.116,-20.514c-1.432,-3.77 -2.826,-7.213 -4.146,-10.234c-0.11,-0.253 0.005,-0.548 0.258,-0.658c0.254,-0.111 0.548,0.004 0.658,0.258c1.327,3.036 2.729,6.495 4.166,10.279c2.468,6.5 5.005,13.849 7.541,21.843c0.063,0.2 -0.005,0.418 -0.171,0.547c-0.165,0.128 -0.395,0.14 -0.571,0.028c-5.565,-3.497 -10.084,-4.964 -13.568,-4.413c-4.612,0.729 -7.542,4.017 -9.799,7.136c-0.098,0.134 -0.251,0.206 -0.406,0.206z" fill="#6e57e0" stroke="none" stroke-linecap="butt" stroke-linejoin="miter"></path><path d="M14.875,53.25l10.5,7.375" fill="#ffffff" stroke="#6e57e0" stroke-linecap="round" stroke-linejoin="round"></path></g></g></svg>