<?xml version="1.0" encoding="utf-8"?>
<!-- Generator: Adobe Illustrator 24.1.2, SVG Export Plug-In . SVG Version: 6.00 Build 0)  -->
<svg version="1.1" id="Layer_1" xmlns="http://www.w3.org/2000/svg" xmlns:xlink="http://www.w3.org/1999/xlink" x="0px" y="0px"
	 viewBox="0 0 640 512" style="enable-background:new 0 0 640 512;" xml:space="preserve">
<style type="text/css">
	.st0{fill:#6E57E0;}
</style>
<g id="group">
	<path id="Path" class="st0" d="M452,156.7l-34.5,34.5c56.5,56.5,56.5,147.4,0,202.8c-56.5,56.5-147.4,56.5-202.8,0
		c-56.5-56.5-56.5-147.4,0-202.8l89.4-89.4l12.5-12.5V21.9L181.8,156.7c-75.3,75.3-75.3,196.5,0,271.8s196.5,75.3,270.2,0
		C527.3,352.8,527.3,232,452,156.7z"/>
	<path id="Path-1" class="st0" d="M409.7,123.3c0,13.9-11.2,25.1-25.1,25.1s-25.1-11.2-25.1-25.1c0-13.9,11.2-25.1,25.1-25.1
		S409.7,109.4,409.7,123.3z"/>
</g>
</svg>
